<?xml version="1.0" standalone="no"?>
<!DOCTYPE svg PUBLIC "-//W3C//DTD SVG 20010904//EN"
 "http://www.w3.org/TR/2001/REC-SVG-20010904/DTD/svg10.dtd">
<svg version="1.0" xmlns="http://www.w3.org/2000/svg"
 width="512.000000pt" height="512.000000pt" viewBox="0 0 512.000000 512.000000"
 preserveAspectRatio="xMidYMid meet">

<g transform="translate(0.000000,512.000000) scale(0.100000,-0.100000)"
fill="#000000" stroke="none">
<path d="M1355 5113 c-201 -24 -375 -76 -544 -163 -411 -213 -701 -605 -787
-1065 -18 -94 -19 -171 -19 -1325 0 -1154 1 -1231 19 -1325 115 -617 594
-1096 1211 -1211 94 -18 171 -19 1335 -19 l1235 0 105 23 c463 102 829 377
1039 782 68 130 109 247 143 400 l23 105 0 1235 c0 1164 -1 1241 -19 1335
-107 576 -532 1036 -1093 1185 -182 49 -210 50 -1453 48 -641 0 -1178 -3
-1195 -5z m1818 -1171 l177 -367 0 -1000 c0 -610 -4 -1035 -10 -1090 -36 -312
-173 -512 -417 -607 -142 -55 -201 -63 -507 -63 l-279 0 -183 350 -183 350 2
320 2 320 135 6 c157 7 238 22 274 50 l26 20 0 1040 0 1039 393 0 392 -1 178
-367z"/>
<path d="M2300 3216 l0 -1003 -22 -33 c-42 -61 -143 -95 -314 -106 l-104 -7 0
-230 0 -229 243 5 c203 4 254 8 318 25 276 74 431 262 468 567 7 60 11 415 11
1053 l0 962 -300 0 -300 0 0 -1004z"/>
</g>
</svg>
